<?xml version="1.0" encoding="utf-8"?>
<!-- Generator: Adobe Illustrator 22.0.1, SVG Export Plug-In . SVG Version: 6.00 Build 0)  -->
<svg version="1.1" id="Layer_1" xmlns="http://www.w3.org/2000/svg" xmlns:xlink="http://www.w3.org/1999/xlink" x="0px" y="0px"
	 viewBox="0 0 155.8 109.3" style="enable-background:new 0 0 155.8 109.3;" xml:space="preserve">
<style type="text/css">
	.st0{fill:#FF0000;}
	.st1{fill:#FFFFFF;}
</style>
<g>
	<g>
		<path class="st0" d="M152.5,17.1c-1.8-6.7-7.1-12-13.8-13.8C126.6,0,77.9,0,77.9,0S29.2,0.1,17.1,3.4c-6.7,1.8-12,7.1-13.8,13.8
			C0.1,29.3,0.1,54.6,0.1,54.6s0,25.3,3.3,37.5c1.8,6.7,7.1,12,13.8,13.8c12.1,3.3,60.8,3.3,60.8,3.3s48.7,0,60.8-3.3
			c6.7-1.8,12-7.1,13.8-13.8c3.3-12.1,3.3-37.5,3.3-37.5S155.8,29.3,152.5,17.1z"/>
		<polygon class="st1" points="62.4,78 102.8,54.6 62.4,31.2 		"/>
	</g>
</g>
</svg>
