<svg xmlns="http://www.w3.org/2000/svg" viewBox="0 0 258.19 300"><defs><style>.cls-1{fill:#fff;}</style></defs><title>Asset 1</title><g id="Layer_2" data-name="Layer 2"><g id="Layer_1-2" data-name="Layer 1"><path class="cls-1" d="M150.5,288A137.5,137.5,0,0,1,150,13V0C67.71,0,0,67.72,0,150S67.71,300,150,300a150.05,150.05,0,0,0,108.19-46.1l-8.51-8.17A137.11,137.11,0,0,1,150.5,288Z"/><path class="cls-1" d="M150.5,263A112.5,112.5,0,0,1,150,38V25C81.43,25,25,81.43,25,150S81.43,275,150,275a124.9,124.9,0,0,0,47-9.19l-4.45-10.95A112.31,112.31,0,0,1,150.5,263Z"/><path class="cls-1" d="M248.45,132.44l-12.7,2.26A87.51,87.51,0,1,1,149.5,62h.5V50C95.14,50,50,95.14,50,150S95.14,250,150,250s100-45.14,100-100A100.3,100.3,0,0,0,248.45,132.44Z"/><path class="cls-1" d="M198.23,92.57l-8.49,10.12A62.49,62.49,0,1,1,149.5,88h.5V75c-41.14,0-75,33.86-75,75s33.86,75,75,75,75-33.86,75-75A75,75,0,0,0,198.23,92.57Z"/><path class="cls-1" d="M187.86,152.58A37.49,37.49,0,1,1,150,112V99a50,50,0,1,0,49.78,54.7Z"/></g></g></svg>